<?xml version="1.0" encoding="UTF-8"?>
<svg id="Layer_2" xmlns="http://www.w3.org/2000/svg" viewBox="0 0 336.87 130.3">
  <defs>
    <style>
      .cls-1 {
        fill: #231f20;
      }

      .cls-2 {
        fill: none;
        stroke: #231f20;
        stroke-miterlimit: 10;
        stroke-width: 3px;
      }
    </style>
  </defs>
  <g id="Layer_1-2" data-name="Layer_1">
    <g>
      <g>
        <path class="cls-1" d="M171.84,33.23h-3.61c-.51,0-.79.23-.83.69-.42,2.55-.79,4.8-1.11,6.77-.32,1.97-.62,3.74-.9,5.31-.28,1.57-.53,3-.76,4.27s-.49,2.46-.76,3.57c-.46,1.9-1.24,3.37-2.33,4.41-1.09,1.04-2.27,1.71-3.54,2.01-1.27.3-2.56.23-3.85-.21-1.3-.44-2.36-1.21-3.19-2.33-.88-1.11-1.44-2.75-1.67-4.93-.23-2.17-.29-4.49-.17-6.94.12-2.45.35-4.81.69-7.08.35-2.27.68-4.05,1.01-5.34.05-.23.04-.38-.03-.45s-.21-.13-.42-.17c-.21-.05-.49-.09-.83-.14-.35-.05-.78-.16-1.28-.35-.88-.28-1.55-.72-2.01-1.32-.46-.6-.69-1.27-.69-2.01.05-1.25.59-2.16,1.63-2.74,1.04-.58,2.3-.91,3.78-1.01.46-.04.81-.07,1.04-.07s.42-.1.55-.31c.14-.21.27-.6.38-1.18.12-.58.3-1.46.56-2.64.25-1.18.6-2.72,1.04-4.62.44-1.9,1.05-4.28,1.84-7.15.23-.79.52-1.61.87-2.46.35-.86.84-1.58,1.49-2.19.55-.51,1.21-.88,1.98-1.11s1.53-.28,2.29-.14c.76.14,1.49.48,2.19,1.01.69.53,1.29,1.28,1.8,2.26.56,1.02.96,2.21,1.21,3.58.25,1.37.43,2.78.52,4.23.09,1.46.12,2.92.07,4.37-.05,1.46-.09,2.81-.14,4.06,0,.23-.01.46-.04.69-.02.23.15.35.52.35,1.06-.05,1.89-.07,2.46-.07s1.02-.02,1.32-.07.49-.12.56-.21c.07-.09.13-.23.17-.42.18-.83.44-2.07.76-3.71.32-1.64.69-3.34,1.11-5.1.42-1.76.88-3.42,1.39-5,.51-1.57,1.04-2.71,1.6-3.4.74-.92,1.6-1.38,2.57-1.35.97.02,1.8.5,2.5,1.42.56.69.99,1.66,1.32,2.88.32,1.23.55,2.58.69,4.06.14,1.48.2,3.03.17,4.65-.02,1.62-.07,3.19-.14,4.72s-.16,2.95-.28,4.27c-.12,1.32-.22,2.4-.31,3.23-.37,3.61-.61,6.5-.73,8.68-.12,2.17-.19,3.93-.21,5.28-.02,1.34-.03,2.42-.03,3.23s-.09,1.68-.28,2.6c-.09.65-.29,1.32-.59,2.01-.3.69-.72,1.32-1.25,1.87-.53.55-1.18,1.01-1.94,1.35-.76.35-1.68.52-2.74.52s-1.93-.24-2.74-.73c-.81-.49-1.48-1.11-2.01-1.88-.53-.76-.95-1.58-1.25-2.46-.3-.88-.45-1.71-.45-2.5,0-.92.05-2.16.14-3.71.09-1.55.21-3.1.35-4.65.14-1.55.27-2.93.38-4.13.12-1.2.17-1.9.17-2.08Z"/>
        <path class="cls-1" d="M220.15,53.77c-.23.83-.66,1.54-1.28,2.12-.62.58-1.37.92-2.22,1.04-.86.12-1.78-.05-2.78-.49-1-.44-1.98-1.26-2.95-2.46-1.34-1.76-2.31-3.67-2.92-5.73-.6-2.06-.97-4.27-1.11-6.63-.05-1.2-.06-1.98-.03-2.33.02-.35-.22-.52-.73-.52-.65,0-1.32.01-2.01.03-.69.02-1.33.05-1.91.07-.58.02-1.26.06-2.05.1-.56,0-.97.35-1.25,1.04-.88,2.78-1.56,4.96-2.05,6.56-.49,1.6-.84,2.85-1.08,3.75-.23.9-.39,1.56-.49,1.98-.09.42-.21.81-.35,1.18-.37.92-1,1.57-1.88,1.94-.88.37-1.75.45-2.6.24-.86-.21-1.56-.75-2.12-1.63-.56-.88-.72-2.13-.49-3.75.05-.51.15-1.2.31-2.08.16-.88.32-1.78.49-2.71.16-.93.35-1.83.56-2.71.21-.88.38-1.57.52-2.08.14-.46.18-.75.14-.87-.05-.12-.25-.29-.62-.52-.46-.32-.81-.73-1.04-1.21-.23-.49-.33-.98-.31-1.49.02-.51.17-1.02.45-1.53.28-.51.69-.93,1.25-1.25.51-.37.94-.61,1.28-.73.35-.12.65-.22.9-.31.25-.09.49-.22.69-.38.21-.16.38-.43.52-.8,1.99-4.95,4.06-9.16,6.21-12.63s4.28-6.26,6.39-8.36c2.11-2.11,4.13-3.54,6.07-4.3s3.7-.88,5.28-.35c1.57.53,2.89,1.7,3.96,3.5s1.76,4.19,2.08,7.15c.28,2.27.42,4.55.42,6.84s-.05,4.59-.14,6.91c-.05,1.71-.14,3.58-.28,5.59s-.34,4.05-.59,6.11c-.25,2.06-.57,4.08-.94,6.07-.37,1.99-.81,3.86-1.32,5.62ZM208.91,18.23c-1.07,1.62-2.07,3.4-3.02,5.34-.95,1.94-1.96,4.1-3.02,6.46,1.06-.14,1.95-.24,2.67-.31.72-.07,1.56-.15,2.53-.24.37-.04.68-.5.94-1.35.25-.86.44-1.87.56-3.05.12-1.18.13-2.41.03-3.68-.09-1.27-.32-2.33-.69-3.16Z"/>
        <path class="cls-1" d="M241.53,39.13c-.37-.09-.64.07-.8.49-.16.42-.32,1.16-.49,2.22-.16,1.07-.36,2.51-.59,4.34-.23,1.83-.62,4.11-1.18,6.84-.23,1.25-.64,2.37-1.21,3.37-.58.99-1.27,1.77-2.08,2.33-.81.55-1.71.83-2.71.83s-2.02-.37-3.09-1.11c-.93-.6-1.63-1.49-2.12-2.67-.49-1.18-.82-2.46-1.01-3.85-.18-1.39-.28-2.81-.28-4.27s.05-2.79.14-3.99c.05-1.2.21-2.83.49-4.89.28-2.06.64-4.31,1.08-6.77.44-2.45.94-5,1.49-7.64s1.16-5.14,1.8-7.5c.65-2.36,1.31-4.47,1.98-6.32.67-1.85,1.35-3.22,2.05-4.1.65-.88,1.28-1.46,1.91-1.74.62-.28,1.21-.44,1.77-.49.56-.04,1.08-.02,1.56.07.49.09.89.09,1.21,0,2.59-.65,5.12-.8,7.6-.45,2.48.35,4.89,1.15,7.25,2.4,2.41,1.34,4.25,3.15,5.52,5.41,1.27,2.27,2.07,4.88,2.39,7.84.14,1.57-.06,3.34-.59,5.31-.53,1.97-1.37,3.88-2.5,5.73-1.13,1.85-2.56,3.51-4.27,4.96-1.71,1.46-3.66,2.51-5.83,3.16-.83.23-1.76.41-2.78.52-1.02.12-1.98.19-2.88.21-.9.02-1.7,0-2.39-.07s-1.18-.13-1.46-.17ZM242.71,26.01c1.2-.23,2.38-.66,3.54-1.28,1.16-.62,2.24-1.32,3.26-2.08s1.9-1.53,2.64-2.29,1.27-1.4,1.6-1.91c.74-1.11.9-2.26.49-3.44-.42-1.18-1.18-2.05-2.29-2.6-1.06-.56-2.14-1.01-3.23-1.35-1.09-.35-2.23-.47-3.44-.38-.46.05-.73.1-.8.17s-.13.36-.17.87c-.05,1.07-.13,2.09-.24,3.09-.12,1-.23,2.05-.35,3.16-.12,1.11-.25,2.31-.42,3.61-.16,1.3-.36,2.78-.59,4.44Z"/>
        <path class="cls-1" d="M278.73,39.13c-.37-.09-.64.07-.8.49-.16.42-.32,1.16-.49,2.22-.16,1.07-.36,2.51-.59,4.34-.23,1.83-.62,4.11-1.18,6.84-.23,1.25-.64,2.37-1.21,3.37-.58.99-1.27,1.77-2.08,2.33-.81.55-1.71.83-2.71.83s-2.02-.37-3.09-1.11c-.93-.6-1.63-1.49-2.12-2.67-.49-1.18-.82-2.46-1.01-3.85-.18-1.39-.28-2.81-.28-4.27s.05-2.79.14-3.99c.05-1.2.21-2.83.49-4.89.28-2.06.64-4.31,1.08-6.77.44-2.45.94-5,1.49-7.64s1.16-5.14,1.8-7.5c.65-2.36,1.31-4.47,1.98-6.32.67-1.85,1.35-3.22,2.05-4.1.65-.88,1.28-1.46,1.91-1.74.62-.28,1.21-.44,1.77-.49.56-.04,1.08-.02,1.56.07.49.09.89.09,1.21,0,2.59-.65,5.12-.8,7.6-.45,2.48.35,4.89,1.15,7.25,2.4,2.41,1.34,4.25,3.15,5.52,5.41,1.27,2.27,2.07,4.88,2.39,7.84.14,1.57-.06,3.34-.59,5.31-.53,1.97-1.37,3.88-2.5,5.73-1.13,1.85-2.56,3.51-4.27,4.96-1.71,1.46-3.66,2.51-5.83,3.16-.83.23-1.76.41-2.78.52-1.02.12-1.98.19-2.88.21-.9.02-1.7,0-2.39-.07s-1.18-.13-1.46-.17ZM279.91,26.01c1.2-.23,2.38-.66,3.54-1.28,1.16-.62,2.24-1.32,3.26-2.08s1.9-1.53,2.64-2.29,1.27-1.4,1.6-1.91c.74-1.11.9-2.26.49-3.44-.42-1.18-1.18-2.05-2.29-2.6-1.06-.56-2.14-1.01-3.23-1.35-1.09-.35-2.23-.47-3.44-.38-.46.05-.73.1-.8.17s-.13.36-.17.87c-.05,1.07-.13,2.09-.24,3.09-.12,1-.23,2.05-.35,3.16-.12,1.11-.25,2.31-.42,3.61-.16,1.3-.36,2.78-.59,4.44Z"/>
        <path class="cls-1" d="M327.25,8.17c.79-1.2,1.75-1.98,2.88-2.33,1.13-.35,2.22-.32,3.26.07,1.04.39,1.91,1.11,2.6,2.15s.97,2.37.83,3.99c-.09,1.2-.25,2.37-.49,3.51-.23,1.13-.44,2.3-.62,3.5-.05.42-.13,1.28-.24,2.6-.12,1.32-.3,2.9-.55,4.75-.25,1.85-.57,3.9-.94,6.14-.37,2.25-.87,4.54-1.49,6.87-.62,2.34-1.39,4.63-2.29,6.87-.9,2.25-1.98,4.28-3.23,6.11-1.25,1.83-2.68,3.37-4.3,4.62-1.62,1.25-3.47,2.06-5.55,2.43-2.73.46-5.13.39-7.18-.21-2.06-.6-3.76-1.48-5.1-2.64-1.34-1.16-2.3-2.49-2.88-3.99-.58-1.5-.78-2.93-.59-4.27.18-1.16.73-1.91,1.63-2.26.9-.35,1.82-.1,2.74.73.28.23.53.53.76.9.23.37.57.71,1.01,1.01.44.3,1.02.53,1.74.69.72.16,1.7.13,2.95-.1,1.53-.28,2.86-.8,3.99-1.56,1.13-.76,2.08-1.63,2.85-2.6s1.35-1.93,1.77-2.88c.42-.95.65-1.72.69-2.33-.69.56-1.44,1.02-2.22,1.39-.79.37-1.57.72-2.36,1.04-1.53.6-3.04.84-4.55.73-1.5-.11-2.91-.52-4.2-1.21-1.3-.69-2.42-1.67-3.37-2.92-.95-1.25-1.61-2.66-1.98-4.23-.69-3.93-.88-7.67-.55-11.21.32-3.54.9-6.66,1.74-9.37s1.82-4.88,2.95-6.52,2.21-2.56,3.23-2.74c.88-.14,1.72-.08,2.53.17.81.25,1.52.71,2.12,1.35.6.65,1.05,1.48,1.35,2.5.3,1.02.38,2.22.24,3.61-.14,1.11-.35,2.5-.62,4.17s-.54,3.41-.8,5.24c-.25,1.83-.48,3.63-.66,5.41-.18,1.78-.25,3.37-.21,4.75.05,1.39.24,2.5.59,3.33.35.83.91,1.18,1.7,1.04,1.25-.23,2.34-1.16,3.26-2.78.92-1.62,1.72-3.5,2.39-5.66.67-2.15,1.25-4.34,1.74-6.56.49-2.22.91-4.05,1.28-5.48.37-1.39.64-2.5.8-3.33s.29-1.52.38-2.05c.09-.53.21-.97.35-1.32.14-.35.35-.73.62-1.15Z"/>
        <path class="cls-1" d="M161.57,111.97c-.56.14-1.07.28-1.53.42-.46.14-.93.21-1.39.21-2.17.09-4.06-.43-5.66-1.56-1.6-1.13-2.85-2.66-3.75-4.58-.9-1.92-1.45-4.12-1.63-6.59-.19-2.47.01-5,.59-7.57.58-2.57,1.57-5.07,2.98-7.5,1.41-2.43,3.27-4.55,5.59-6.35,1.29-1.02,2.86-1.76,4.69-2.22,1.83-.46,3.39-.69,4.69-.69,1.48,0,2.7.2,3.64.59.95.39,1.7.88,2.26,1.46.55.58.92,1.21,1.11,1.91.18.69.24,1.33.17,1.91-.07.58-.25,1.07-.56,1.46-.3.39-.68.59-1.15.59-1.85,0-3.56.51-5.14,1.53-1.57,1.02-2.94,2.28-4.09,3.78-1.16,1.5-2.09,3.13-2.81,4.89-.72,1.76-1.18,3.39-1.39,4.89-.21,1.5-.13,2.77.24,3.78.37,1.02,1.06,1.53,2.08,1.53,1.43,0,2.68-.58,3.75-1.74,1.06-1.16,1.97-2.47,2.71-3.96.74-1.48,1.31-2.94,1.7-4.37.39-1.43.64-2.43.73-2.99.18-1.02.65-1.65,1.39-1.91.74-.25,1.52-.1,2.33.45.81.55,1.54,1.53,2.19,2.92.65,1.39.97,3.19.97,5.41,0,1.48-.12,3.32-.35,5.52-.23,2.2-.65,4.5-1.25,6.91-.6,2.41-1.39,4.81-2.36,7.22s-2.22,4.57-3.75,6.49-3.33,3.48-5.41,4.69c-2.08,1.2-4.51,1.8-7.29,1.8-2.5,0-4.57-.38-6.21-1.15-1.64-.76-2.93-1.7-3.85-2.81s-1.54-2.34-1.84-3.68c-.3-1.34-.38-2.57-.24-3.68.14-1.11.46-2.05.97-2.81.51-.76,1.13-1.15,1.88-1.15.46,0,.89.12,1.28.35.39.23.63.67.73,1.32.09.6.33,1.09.73,1.46.39.37.84.67,1.35.9.51.23,1.04.39,1.6.49.56.09,1.06.14,1.53.14,1.25,0,2.36-.36,3.33-1.08.97-.72,1.79-1.53,2.46-2.43.67-.9,1.17-1.77,1.49-2.6.32-.83.49-1.37.49-1.6Z"/>
        <path class="cls-1" d="M210.02,123.64c-.23.83-.66,1.54-1.28,2.12-.62.58-1.37.92-2.22,1.04-.86.12-1.78-.05-2.78-.49-1-.44-1.98-1.26-2.95-2.46-1.34-1.76-2.31-3.67-2.92-5.73-.6-2.06-.97-4.27-1.11-6.63-.05-1.2-.06-1.98-.03-2.33.02-.35-.22-.52-.73-.52-.65,0-1.32.01-2.01.03-.69.02-1.33.05-1.91.07-.58.02-1.26.06-2.05.1-.56,0-.97.35-1.25,1.04-.88,2.78-1.56,4.96-2.05,6.56-.49,1.6-.84,2.85-1.08,3.75-.23.9-.39,1.56-.49,1.98-.09.42-.21.81-.35,1.18-.37.92-1,1.57-1.88,1.94-.88.37-1.75.45-2.6.24-.86-.21-1.56-.75-2.12-1.63-.56-.88-.72-2.13-.49-3.75.05-.51.15-1.2.31-2.08.16-.88.32-1.78.49-2.71.16-.93.35-1.83.56-2.71.21-.88.38-1.57.52-2.08.14-.46.18-.75.14-.87-.05-.12-.25-.29-.62-.52-.46-.32-.81-.73-1.04-1.21-.23-.49-.33-.98-.31-1.49.02-.51.17-1.02.45-1.53.28-.51.69-.93,1.25-1.25.51-.37.94-.61,1.28-.73.35-.12.65-.22.9-.31.25-.09.49-.22.69-.38.21-.16.38-.43.52-.8,1.99-4.95,4.06-9.16,6.21-12.63s4.28-6.26,6.39-8.36c2.11-2.11,4.13-3.54,6.07-4.3s3.7-.88,5.28-.35c1.57.53,2.89,1.7,3.96,3.5s1.76,4.19,2.08,7.15c.28,2.27.42,4.55.42,6.84s-.05,4.59-.14,6.91c-.05,1.71-.14,3.58-.28,5.59s-.34,4.05-.59,6.11c-.25,2.06-.57,4.08-.94,6.07-.37,1.99-.81,3.86-1.32,5.62ZM198.77,88.1c-1.07,1.62-2.07,3.4-3.02,5.34-.95,1.94-1.96,4.1-3.02,6.46,1.06-.14,1.95-.24,2.67-.31.72-.07,1.56-.15,2.53-.24.37-.04.68-.5.94-1.35.25-.86.44-1.87.56-3.05.12-1.18.13-2.41.03-3.68-.09-1.27-.32-2.33-.69-3.16Z"/>
        <path class="cls-1" d="M259.86,74.91c1.2,0,2.14.38,2.81,1.15.67.76,1.17,1.74,1.49,2.92.32,1.18.51,2.51.55,3.99.05,1.48.01,2.92-.1,4.3-.12,1.39-.27,2.66-.45,3.82-.19,1.16-.35,2.04-.49,2.64-1.16,4.72-2.08,9.06-2.78,13.01-.69,3.96-1.42,7.36-2.19,10.2s-1.67,5.07-2.71,6.66c-1.04,1.6-2.51,2.39-4.41,2.39-.97,0-1.92-.19-2.85-.56-.93-.37-1.74-.97-2.43-1.8-.69-.83-1.24-1.91-1.63-3.23-.39-1.32-.52-2.9-.38-4.75.14-2.5.46-4.96.97-7.39.51-2.43,1.16-4.87,1.94-7.32-.32.32-.65.87-.97,1.63-.32.76-.68,1.57-1.08,2.43-.39.86-.82,1.72-1.28,2.6-.46.88-1,1.6-1.6,2.15-1.11,1.11-2.29,1.62-3.54,1.53-1.25-.09-2.27-.79-3.05-2.08-.51-.83-.97-1.82-1.39-2.95-.42-1.13-.74-2.23-.97-3.3-.23.28-.49,1.02-.76,2.22-.28,1.2-.61,2.63-1.01,4.27-.39,1.64-.83,3.4-1.32,5.28-.49,1.88-1.06,3.59-1.74,5.14-.67,1.55-1.43,2.85-2.29,3.89-.86,1.04-1.82,1.56-2.88,1.56-1.67,0-2.93-.74-3.78-2.22-.86-1.48-1.46-3.39-1.8-5.73-.35-2.34-.49-4.96-.42-7.88s.22-5.81.45-8.68c.23-2.87.79-5.87,1.67-8.99.88-3.12,1.99-5.99,3.33-8.61,1.34-2.61,2.89-4.77,4.65-6.46,1.76-1.69,3.63-2.53,5.62-2.53s3.63.62,4.79,1.88c1.16,1.25,2.05,2.83,2.67,4.75.62,1.92,1.06,4.06,1.32,6.42.25,2.36.47,4.65.66,6.87,1.99-3.61,4-6.83,6.04-9.65.88-1.2,1.79-2.37,2.74-3.5.95-1.13,1.91-2.15,2.88-3.05s1.94-1.63,2.92-2.19c.97-.55,1.9-.83,2.78-.83Z"/>
        <path class="cls-1" d="M279.98,98.51c.51-.04.89-.09,1.15-.14.25-.05.52-.08.8-.1.28-.02.66-.04,1.15-.04h2.05c.93,0,1.57.35,1.94,1.04.37.69.51,1.46.42,2.29-.09.83-.42,1.61-.97,2.33-.56.72-1.3,1.08-2.22,1.08-1.3,0-2.3-.02-3.02-.07s-1.52-.07-2.39-.07c-.46,0-.84.67-1.15,2.01-.3,1.34-.54,2.98-.73,4.93-.05.65.18,1.1.69,1.35.51.25,1.18.42,2.01.49s1.75.07,2.74,0c.99-.07,1.91-.13,2.74-.17.88,0,1.53.51,1.94,1.53.42,1.02.59,2.15.52,3.4s-.39,2.41-.97,3.47c-.58,1.07-1.45,1.64-2.6,1.74-1.16.09-2.11.18-2.85.28-.74.09-1.46.17-2.15.24-.69.07-1.48.13-2.36.17-.88.04-2.04.07-3.47.07s-2.65-.15-3.64-.45c-1-.3-1.82-.71-2.46-1.21-.65-.51-1.16-1.11-1.53-1.8-.37-.69-.65-1.43-.83-2.22-.37-1.39-.51-3.32-.42-5.8.09-2.47.34-5.19.73-8.16.39-2.96.95-5.99,1.67-9.09.72-3.1,1.51-5.98,2.39-8.64.88-2.66,1.84-4.93,2.88-6.8s2.09-3.07,3.16-3.58c1.02-.46,2.05-.76,3.09-.9s2.13-.2,3.26-.17c1.13.02,2.34.08,3.61.17,1.27.09,2.65.14,4.13.14,2.36,0,4.01.51,4.96,1.53.95,1.02,1.36,2.14,1.25,3.37-.12,1.23-.64,2.35-1.56,3.37-.93,1.02-2.08,1.53-3.47,1.53h-4.3c-1.07,0-1.9.07-2.5.21-.6.14-1.03.41-1.28.8-.25.39-.48,1.01-.66,1.84-.37,1.62-.66,3.19-.87,4.72s-.5,3.31-.87,5.34Z"/>
        <path class="cls-1" d="M289.84,113.36c.28-1.94.74-3.77,1.39-5.48.65-1.71,1.41-3.19,2.29-4.44s1.85-2.2,2.92-2.85c1.06-.65,2.15-.88,3.26-.69.93.14,1.63.52,2.12,1.15.49.62.84,1.35,1.08,2.19.23.83.35,1.69.35,2.57s-.05,1.62-.14,2.22c-.19,1.34-.12,2.43.21,3.26.32.83.81,1.42,1.46,1.77.65.35,1.38.49,2.19.42.81-.07,1.58-.3,2.33-.69.74-.39,1.4-.94,1.98-1.63.58-.69.94-1.48,1.08-2.36.14-.97-.08-1.9-.66-2.78-.58-.88-1.35-1.74-2.33-2.57s-2.07-1.68-3.3-2.53c-1.23-.86-2.39-1.77-3.5-2.74-1.44-1.29-2.52-2.79-3.26-4.48-.74-1.69-.9-3.92-.49-6.7.23-1.39.74-2.92,1.53-4.58.79-1.67,1.85-3.16,3.19-4.48,1.34-1.32,2.98-2.36,4.93-3.12,1.94-.76,4.19-.94,6.73-.52,1.29.18,2.54.55,3.75,1.11,1.2.55,2.22,1.21,3.05,1.98.83.76,1.41,1.58,1.74,2.46.32.88.25,1.78-.21,2.71-.33.6-.79,1.01-1.39,1.21-.6.21-1.27.34-2.01.38-.74.05-1.52.06-2.33.03-.81-.02-1.55.01-2.22.1-.67.09-1.24.3-1.7.62-.46.32-.76.86-.9,1.6-.14,1.06.09,2.09.69,3.09s1.4,2.05,2.4,3.16c.99,1.11,2.07,2.34,3.23,3.68,1.16,1.34,2.19,2.89,3.09,4.65.9,1.76,1.56,3.78,1.98,6.07.42,2.29.39,4.92-.07,7.88-.18,1.25-.8,2.78-1.84,4.58-1.04,1.81-2.46,3.5-4.27,5.07-1.8,1.57-4,2.82-6.59,3.75-2.59.92-5.55,1.13-8.88.62-2.41-.37-4.46-1.16-6.14-2.36-1.69-1.2-3.05-2.57-4.1-4.1-1.04-1.53-1.77-3.12-2.19-4.79-.42-1.67-.55-3.15-.42-4.44Z"/>
      </g>
      <path class="cls-1" d="M23.78,49.77c15.88,3.9,31.76,7.81,47.63,11.71,4.26,1.05,6.08-5.53,1.81-6.58-15.88-3.9-31.76-7.81-47.63-11.71-4.26-1.05-6.08,5.53-1.81,6.58h0Z"/>
      <path class="cls-1" d="M76.54,31.17c9.64,8.4,19.27,16.8,28.91,25.19,1.39,1.21,3.46,1.37,4.82,0,1.24-1.24,1.39-3.61,0-4.82-9.64-8.4-19.27-16.8-28.91-25.19-1.39-1.21-3.46-1.37-4.82,0-1.24,1.24-1.39,3.61,0,4.82h0Z"/>
      <path class="cls-1" d="M89.85,54.52c5.12-10.86,11.87-20.84,20.12-29.57,3.02-3.19-1.8-8.02-4.82-4.82-8.64,9.13-15.83,19.58-21.19,30.95-.78,1.67-.46,3.68,1.22,4.67,1.48.87,3.88.45,4.67-1.22h0Z"/>
      <path class="cls-1" d="M19.88,95.17c7.34-.07,14.33-2.26,21.25-4.45,7.22-2.29,14.43-4.57,21.65-6.86,14.22-4.51,28.44-9.01,42.66-13.52,8.19-2.59,16.37-5.19,24.56-7.78-1.44-1.1-2.88-2.19-4.32-3.29-2,17.24-12.52,33.27-26.99,42.67-15.27,9.92-34.19,11.56-51.28,5.58-9.52-3.33-18.08-9.07-24.74-16.63-.8,1.94-1.61,3.88-2.41,5.82,13.28.49,25.29-5.75,36.97-11.25,12.39-5.83,25.37-9.69,38.77-12.48,7.69-1.6,15.44-2.9,23.19-4.19-.6-2.19-1.21-4.39-1.81-6.58-23.13,7.81-46.25,15.62-69.38,23.43-6.64,2.24-13.28,4.48-19.91,6.73-3.11,1.05-3.37,5.64,0,6.58,12.15,3.38,24.6-.07,36.19-3.94,12.32-4.11,24.62-8.29,36.93-12.43,7.09-2.38,14.17-4.77,21.26-7.15,2.62-.88,3.56-4.79.81-6.23-10.77-5.66-22.58-.94-32.86,3.51-10.83,4.68-21.95,8.58-33.4,11.47-6.65,1.68-13.37,3.02-20.15,4.06-1.65.25-2.67,2.24-2.44,3.74.27,1.77,1.61,2.8,3.35,2.96-.58-.05.81.32.28.08.58.26.41.22.67.49.32.33.78,1.18.91,1.7.11.41.12,1.48.08,1.67-.1.58.05.29-.3.76s.3-.29-.1.12c-.21.22-.43.4-.67.58-1.17.91-1.23,2.95-.53,4.13.77,1.32,2.38,1.93,3.85,1.57,6.66-1.66,13.43-2.58,20.3-2.68,6.75-.1,13.44.87,20.19.86,11.35,0,23.78-4.02,28.16-15.52.66-1.72-.73-3.74-2.38-4.2-1.92-.53-3.54.65-4.2,2.38-3.75,9.84-16.66,10.82-25.49,10.41-6.31-.3-12.56-.96-18.88-.69-6.58.28-13.13,1.25-19.51,2.85l3.32,5.7c3-2.32,3.72-6.64,2.64-10.12-1.2-3.88-4.28-6.57-8.34-6.93.3,2.23.6,4.47.91,6.7,11.37-1.74,22.59-4.37,33.53-7.91,5.52-1.79,10.96-3.8,16.32-6.03,5.02-2.09,9.94-4.44,15.16-6.02s11.07-2.44,16.15.23c.27-2.08.54-4.16.81-6.23-12.02,4.05-24.05,8.09-36.07,12.14-6.01,2.02-12.02,4.05-18.04,6.07s-11.44,3.91-17.33,5.21c-6.38,1.41-12.96,1.87-19.31.1v6.58c23.13-7.81,46.25-15.62,69.38-23.43,6.64-2.24,13.28-4.48,19.91-6.73,4.22-1.42,2.48-7.3-1.81-6.58-13.59,2.27-27.22,4.56-40.45,8.45-6.52,1.92-12.89,4.26-19.09,7.04-5.79,2.6-11.42,5.56-17.31,7.93-6.48,2.61-13.21,4.51-20.26,4.25-3.13-.11-4.26,3.72-2.41,5.82,13.11,14.9,33.37,23.07,53.14,22.1,20.12-.98,38.25-11.71,49.85-28.01,6.42-9.03,10.41-19.54,11.68-30.53.25-2.19-2.39-3.9-4.32-3.29-28.44,9.01-56.88,18.02-85.31,27.03-7.47,2.37-15.07,5.26-23,5.34-4.39.04-4.4,6.87,0,6.82h0Z"/>
      <path class="cls-1" d="M34.33,99.06c12.14,9.42,27.57,13.52,42.8,11.4,14.19-1.97,26.95-9.87,35.65-21.16,4.84-6.28,8.36-13.54,10.14-21.28.56-2.44-1.61-4.99-4.2-4.2-3.95,1.21-6.77,4-9.37,7.09-2.32,2.75-4.54,5.74-8.18,6.67-2.32.59-4.76.67-7.13,1s-4.86.79-7.24,1.4c-4.68,1.2-9.24,2.94-13.55,5.11-5,2.52-9.62,5.72-13.84,9.39-1.01.88-1.22,2.56-.71,3.73.59,1.34,1.7,1.94,3.12,2.1,14.46,1.64,29.11-3.09,40.17-12.45-1.94-.8-3.88-1.61-5.82-2.41-.21,1.73-1.59,2.95-3.06,3.65l4.67,4.67c1.3-1.97,2.6-3.94,3.89-5.9,1.41-2.13-.43-5.23-2.95-5.13-6.41.25-12.74,1.46-18.75,3.7-3.52,1.31-3.1,6.57.91,6.7,5.77.19,11.39-1.13,16.53-3.73,1.5-.76,2.04-2.8,1.4-4.26-.72-1.64-2.3-2.29-4.02-1.98-2.43.45-4.85.9-7.28,1.35-1.81.34-2.84,2.53-2.38,4.2.52,1.9,2.38,2.72,4.2,2.38,2.43-.45,4.85-.9,7.28-1.35l-2.63-6.23c-4.08,2.06-8.53,2.95-13.09,2.8.3,2.23.6,4.47.91,6.7,5.46-2.03,11.12-3.22,16.94-3.45-.98-1.71-1.96-3.42-2.95-5.13-1.3,1.97-2.6,3.94-3.89,5.9-.83,1.25-.49,3.11.53,4.13,1.13,1.13,2.75,1.19,4.13.53,3.82-1.81,5.95-5.46,6.44-9.54.16-1.3-.99-2.67-2.1-3.12-1.35-.54-2.64-.22-3.73.71-9.75,8.24-22.73,11.88-35.35,10.45.8,1.94,1.61,3.88,2.41,5.82,8.73-7.6,19.79-12.62,31.28-14.1,3.15-.4,6.39-.48,9.37-1.67,2.38-.95,4.4-2.43,6.19-4.26,2.91-2.97,5.41-7.64,9.46-8.87-1.4-1.4-2.8-2.8-4.2-4.2-2.75,11.97-10.07,22.75-20.23,29.7-10.73,7.34-24.06,9.96-36.8,7.36-7.26-1.48-14.29-4.47-20.17-9.02-1.45-1.13-3.41-1.42-4.82,0-1.18,1.18-1.46,3.69,0,4.82h0Z"/>
      <path class="cls-1" d="M114.82,79.03c-19.22,5.48-38.99,8.75-58.95,9.7-3.57.17-4.4,4.38-1.72,6.36,14.46,10.67,35.79,10.8,50.41.36,3.51-2.51.46-8.09-3.44-5.89-11.45,6.45-25.29,5.38-37.8,3.35-5.08-.82-11.8-2.43-15.79,2.04-2.17,2.43-1.99,6.18.23,8.53,2.26,2.4,5.75,2.95,8.84,3.54,8.38,1.6,16.92,2.18,25.44,1.66,4.36-.26,4.39-7.09,0-6.82-6.59.4-13.25.22-19.79-.77-2.81-.42-6.14-.68-8.76-1.82-.23-.1-.63-.43-.76-.47.1.03.07.35.03.41-.22.29,0-.4,0-.02,0,.07-.12.32-.2.34.13-.04.4-.29.62-.39,1.48-.62,3.64-.47,5.2-.19,3.06.54,6.13,1.01,9.21,1.41,5.81.76,11.71,1.16,17.57.69,6.81-.55,13.42-2.24,19.41-5.61-1.15-1.96-2.3-3.93-3.44-5.89-12.85,9.19-30.82,9.02-43.52-.36l-1.72,6.36c20.55-.98,40.98-4.3,60.77-9.94,4.22-1.2,2.42-7.79-1.81-6.58h0Z"/>
      <path class="cls-1" d="M45.79,102.43c-.67.12-1.34.46-1.96.73-.1.04-.19.08-.29.12-.36.15.88-.34.44-.19-1.28.45.74-.52,2.06.46l1.57,2.04c.9,2.16-.83,3.15-.2,2.29l-.36.47c.08-.09.16-.19.24-.28l-2.41,1c4.32.06,8.64.15,12.97.05,1.78-.04,3.49-1.54,3.41-3.41s-1.5-3.45-3.41-3.41c-4.19.09-8.39,0-12.59-.05-1.16-.02-2.2.3-2.98,1.21-.32.37-.66.76-.89,1.19-1.09,2.03-.14,4.46,2.09,5.15,1.21.38,2.27-.12,3.34-.57.11-.05.23-.1.34-.15-1.08.47-.59.24-.34.15s.51-.19.78-.23c1.76-.32,2.92-2.55,2.38-4.2-.61-1.89-2.31-2.73-4.2-2.38h0Z"/>
      <path class="cls-1" d="M126.38,72.58c1.54-2.68,3.09-5.36,4.63-8.04.44-.77.58-1.77.34-2.63-.22-.79-.83-1.65-1.57-2.04-1.63-.86-3.72-.43-4.67,1.22-1.54,2.68-3.09,5.36-4.63,8.04-.44.77-.58,1.77-.34,2.63.22.79.83,1.65,1.57,2.04,1.63.86,3.72.43,4.67-1.22h0Z"/>
      <line class="cls-2" x1="34.3" y1="99.27" x2="40.57" y2="105.47"/>
      <path class="cls-1" d="M29.43,101.7c12.49,6,25.83,9.8,39.59,11.31v-5c-10.56-.14-20.51-4.46-30.95-5.58v5c6.87.26,13.78.61,20.65.48,6.36-.13,12.41-1.22,18.25-3.77,10.35-4.51,18.78-12.47,29.2-16.83,3.24-1.35,6.39-2.51,9.04-4.89,1.9-1.7,3.55-4.04,6.2-4.51l-3.08-3.08c-.72,1.8-1.78,3.49-3.04,4.95h3.54c-1.75-2.07-4.32-3.18-7.01-3.26l1.26,4.66c3.27-1.7,7.1-2,9.3-5.35.97-1.48,1.36-3.24,1.71-4.94.29-1.39.48-2.84,1.51-3.81,2.35-2.21-1.19-5.74-3.54-3.54-1.35,1.27-2.09,2.95-2.52,4.72-.34,1.38-.46,2.89-1.01,4.21-.52,1.24-1.59,1.87-2.8,2.36-1.73.7-3.52,1.17-5.18,2.04-2.29,1.19-1.1,4.59,1.26,4.66,1.45.04,2.56.71,3.48,1.79.83.98,2.71.96,3.54,0,1.87-2.16,3.27-4.51,4.33-7.16.78-1.95-1.43-3.37-3.08-3.08-2.64.47-4.72,2.24-6.58,4.05-.87.84-1.71,1.75-2.68,2.47-1.09.8-2.35,1.4-3.59,1.92-2.72,1.15-5.43,2.22-8.04,3.61s-4.87,2.8-7.23,4.32c-4.71,3.03-9.31,6.25-14.3,8.83-5.29,2.74-10.85,4.26-16.81,4.55-7.56.37-15.21-.12-22.77-.41-1.35-.05-2.5,1.19-2.5,2.5,0,1.47,1.15,2.36,2.5,2.5,10.46,1.12,20.34,5.43,30.95,5.58,1.35.02,2.5-1.16,2.5-2.5,0-1.47-1.15-2.35-2.5-2.5-12.83-1.41-25.44-5.04-37.07-10.63-1.22-.58-2.7-.33-3.42.9-.64,1.09-.33,2.83.9,3.42h0Z"/>
      <path class="cls-1" d="M45.93,32.76c3.18,14.43.9,29.28-6.35,42.14-2.22,3.93,3.83,7.46,6.04,3.53,8.2-14.54,10.64-31.25,7.05-47.54-.97-4.4-7.72-2.54-6.75,1.86h0Z"/>
      <path class="cls-1" d="M19.98,14.41C10.04,28.64,3.15,43.4.91,60.73c-1.81,13.98-1.65,30.82,7.55,42.41,12.07,15.22,34.17,23.71,53.11,24.29,14.54.44,29.63-1.86,43.09-7.44s24.27-15.34,31.79-28.41,11.11-29.72,6.65-44.17c-4.14-13.4-14.16-26.36-25.19-34.88C92.58-7.01,49.18-3.05,27.25,19.9c-3.11,3.26,1.83,8.21,4.95,4.95C50.8,5.38,84.98,1.95,108.25,14.57c10.59,5.74,20.02,17.03,25.31,27.7,6.27,12.63,5.63,29.13-.84,41.61s-14.56,22.2-27.16,28.11c-11.71,5.5-24.77,8.06-37.66,8.45-17.24.52-33.32-4.56-47-15.08-5.84-4.49-9.94-9.64-11.96-16.82s-2.2-14.88-1.61-22.33c1.42-18.13,8.4-33.51,18.7-48.26,2.59-3.7-3.48-7.2-6.04-3.53h0Z"/>
    </g>
  </g>
</svg>